HIERARCHY
ROOT Hips
{
    OFFSET   0.000000   0.000000   0.000000
    CHANNELS 6 Xposition Yposition Zposition Zrotation Xrotation Yrotation
    JOINT Chest
    {
        OFFSET   0.000000   8.007230   0.000000
        CHANNELS 3 Zrotation Xrotation Yrotation
        JOINT Chest2
        {
            OFFSET   0.000000  22.077100   0.000000
            CHANNELS 3 Zrotation Xrotation Yrotation
            JOINT Neck
            {
                OFFSET   0.000000  23.254800  -0.000021
                CHANNELS 3 Zrotation Xrotation Yrotation
                JOINT Head
                {
                    OFFSET   0.000000  14.370000   1.956610
                    CHANNELS 3 Zrotation Xrotation Yrotation
                    End Site
                    {
                        OFFSET   0.000000  19.566000   0.000000
                    }
                }
            }
            JOINT LeftCollar
            {
                OFFSET   3.911900  19.017000  -0.467063
                CHANNELS 3 Zrotation Xrotation Yrotation
                JOINT LeftShoulder
                {
                    OFFSET  10.383700   0.000000   0.000000
                    CHANNELS 3 Zrotation Xrotation Yrotation
                    JOINT LeftElbow
                    {
                        OFFSET  26.662100   0.001529   0.000325
                        CHANNELS 3 Zrotation Xrotation Yrotation
                        JOINT LeftWrist
                        {
                            OFFSET  28.869000  -0.000011  -0.000096
                            CHANNELS 3 Zrotation Xrotation Yrotation
                            JOINT LeftFinger0
                            {
                                OFFSET   2.044650  -2.323460   3.252850
                                CHANNELS 3 Zrotation Xrotation Yrotation
                                JOINT LeftFinger01
                                {
                                    OFFSET   3.088130   0.000000   0.000000
                                    CHANNELS 3 Zrotation Xrotation Yrotation
                                    JOINT LeftFinger02
                                    {
                                        OFFSET   2.639460   0.000000   0.000000
                                        CHANNELS 3 Zrotation Xrotation Yrotation
                                        End Site
                                        {
                                            OFFSET   2.582190   0.000000   0.000000
                                        }
                                    }
                                }
                            }
                            JOINT LeftFinger1
                            {
                                OFFSET   8.364480   0.000000   3.252850
                                CHANNELS 3 Zrotation Xrotation Yrotation
                                JOINT LeftFinger11
                                {
                                    OFFSET   4.646930   0.000000   0.000000
                                    CHANNELS 3 Zrotation Xrotation Yrotation
                                    JOINT LeftFinger12
                                    {
                                        OFFSET   2.323460   0.000000   0.000000
                                        CHANNELS 3 Zrotation Xrotation Yrotation
                                        End Site
                                        {
                                            OFFSET   2.273050   0.000000   0.000000
                                        }
                                    }
                                }
                            }
                            JOINT LeftFinger2
                            {
                                OFFSET   8.364480   0.000016   1.078090
                                CHANNELS 3 Zrotation Xrotation Yrotation
                                JOINT LeftFinger21
                                {
                                    OFFSET   5.111620   0.000000   0.000000
                                    CHANNELS 3 Zrotation Xrotation Yrotation
                                    JOINT LeftFinger22
                                    {
                                        OFFSET   2.788160   0.000017   0.000000
                                        CHANNELS 3 Zrotation Xrotation Yrotation
                                        End Site
                                        {
                                            OFFSET   2.727660   0.000000   0.000000
                                        }
                                    }
                                }
                            }
                            JOINT LeftFinger3
                            {
                                OFFSET   7.899780   0.000015  -1.078090
                                CHANNELS 3 Zrotation Xrotation Yrotation
                                JOINT LeftFinger31
                                {
                                    OFFSET   4.646920   0.000000   0.000000
                                    CHANNELS 3 Zrotation Xrotation Yrotation
                                    JOINT LeftFinger32
                                    {
                                        OFFSET   2.323470   0.000000   0.000000
                                        CHANNELS 3 Zrotation Xrotation Yrotation
                                        End Site
                                        {
                                            OFFSET   2.273050   0.000000   0.000000
                                        }
                                    }
                                }
                            }
                            JOINT LeftFinger4
                            {
                                OFFSET   7.435090   0.000000  -3.252850
                                CHANNELS 3 Zrotation Xrotation Yrotation
                                JOINT LeftFinger41
                                {
                                    OFFSET   3.717550   0.000000   0.000000
                                    CHANNELS 3 Zrotation Xrotation Yrotation
                                    JOINT LeftFinger42
                                    {
                                        OFFSET   1.858760   0.000000   0.000000
                                        CHANNELS 3 Zrotation Xrotation Yrotation
                                        End Site
                                        {
                                            OFFSET   1.818440   0.000000   0.000000
                                        }
                                    }
                                }
                            }
                        }
                    }
                }
            }
            JOINT RightCollar
            {
                OFFSET  -3.911900  19.017000  -0.467062
                CHANNELS 3 Zrotation Xrotation Yrotation
                JOINT RightShoulder
                {
                    OFFSET -10.383700   0.000015   0.000000
                    CHANNELS 3 Zrotation Xrotation Yrotation
                    JOINT RightElbow
                    {
                        OFFSET -26.662100   0.001341   0.000385
                        CHANNELS 3 Zrotation Xrotation Yrotation
                        JOINT RightWrist
                        {
                            OFFSET -28.869000   0.000025  -0.000080
                            CHANNELS 3 Zrotation Xrotation Yrotation
                            JOINT RightFinger0
                            {
                                OFFSET  -2.044650  -2.323490   3.252850
                                CHANNELS 3 Zrotation Xrotation Yrotation
                                JOINT RightFinger01
                                {
                                    OFFSET  -3.088130   0.000000   0.000000
                                    CHANNELS 3 Zrotation Xrotation Yrotation
                                    JOINT RightFinger02
                                    {
                                        OFFSET  -2.639460   0.000000   0.000000
                                        CHANNELS 3 Zrotation Xrotation Yrotation
                                        End Site
                                        {
                                            OFFSET  -2.582190   0.000000   0.000000
                                        }
                                    }
                                }
                            }
                            JOINT RightFinger1
                            {
                                OFFSET  -8.364480   0.000000   3.252850
                                CHANNELS 3 Zrotation Xrotation Yrotation
                                JOINT RightFinger11
                                {
                                    OFFSET  -4.646930   0.000000   0.000000
                                    CHANNELS 3 Zrotation Xrotation Yrotation
                                    JOINT RightFinger12
                                    {
                                        OFFSET  -2.323470   0.000000   0.000000
                                        CHANNELS 3 Zrotation Xrotation Yrotation
                                        End Site
                                        {
                                            OFFSET  -2.273050   0.000000   0.000000
                                        }
                                    }
                                }
                            }
                            JOINT RightFinger2
                            {
                                OFFSET  -8.364480   0.000000   1.078090
                                CHANNELS 3 Zrotation Xrotation Yrotation
                                JOINT RightFinger21
                                {
                                    OFFSET  -5.111610   0.000000   0.000000
                                    CHANNELS 3 Zrotation Xrotation Yrotation
                                    JOINT RightFinger22
                                    {
                                        OFFSET  -2.788160   0.000000   0.000000
                                        CHANNELS 3 Zrotation Xrotation Yrotation
                                        End Site
                                        {
                                            OFFSET  -2.727660   0.000000   0.000000
                                        }
                                    }
                                }
                            }
                            JOINT RightFinger3
                            {
                                OFFSET  -7.899780   0.000000  -1.078090
                                CHANNELS 3 Zrotation Xrotation Yrotation
                                JOINT RightFinger31
                                {
                                    OFFSET  -4.646920   0.000000   0.000000
                                    CHANNELS 3 Zrotation Xrotation Yrotation
                                    JOINT RightFinger32
                                    {
                                        OFFSET  -2.323470   0.000000   0.000000
                                        CHANNELS 3 Zrotation Xrotation Yrotation
                                        End Site
                                        {
                                            OFFSET  -2.273050   0.000000   0.000000
                                        }
                                    }
                                }
                            }
                            JOINT RightFinger4
                            {
                                OFFSET  -7.435090   0.000000  -3.252850
                                CHANNELS 3 Zrotation Xrotation Yrotation
                                JOINT RightFinger41
                                {
                                    OFFSET  -3.717550   0.000000   0.000000
                                    CHANNELS 3 Zrotation Xrotation Yrotation
                                    JOINT RightFinger42
                                    {
                                        OFFSET  -1.858770   0.000000   0.000000
                                        CHANNELS 3 Zrotation Xrotation Yrotation
                                        End Site
                                        {
                                            OFFSET  -1.818440   0.000000   0.000000
                                        }
                                    }
                                }
                            }
                        }
                    }
                }
            }
        }
    }
    JOINT LeftHip
    {
        OFFSET   9.783010   0.000000   0.000000
        CHANNELS 3 Zrotation Xrotation Yrotation
        JOINT LeftKnee
        {
            OFFSET   0.000070 -41.789100   0.000028
            CHANNELS 3 Zrotation Xrotation Yrotation
            JOINT LeftAnkle
            {
                OFFSET   0.000087 -41.133200  -0.000100
                CHANNELS 3 Zrotation Xrotation Yrotation
                JOINT LeftToe
                {
                    OFFSET   0.000000  -6.358960  14.674500
                    CHANNELS 3 Zrotation Xrotation Yrotation
                    End Site
                    {
                        OFFSET   0.000000   0.000000   3.913200
                    }
                }
            }
        }
    }
    JOINT RightHip
    {
        OFFSET  -9.783020   0.000000   0.000000
        CHANNELS 3 Zrotation Xrotation Yrotation
        JOINT RightKnee
        {
            OFFSET   0.000044 -41.789100  -0.000870
            CHANNELS 3 Zrotation Xrotation Yrotation
            JOINT RightAnkle
            {
                OFFSET  -0.000090 -41.133200  -0.000245
                CHANNELS 3 Zrotation Xrotation Yrotation
                JOINT RightToe
                {
                    OFFSET   0.000000  -6.358960  14.674500
                    CHANNELS 3 Zrotation Xrotation Yrotation
                    End Site
                    {
                        OFFSET   0.000000   0.000000   3.913200
                    }
                }
            }
        }
    }
}
MOTION
Frames: 4
Frame Time:   0.016667
  0.652311  89.946500   0.766536  -1.523190 -14.774300  -0.812965  -0.637585  10.343900   2.316070  -1.751700  20.651800   4.873360  -2.262770   1.983150   0.078354  -3.730050   4.001630  10.403500  -4.485330  -1.991020   1.660880 -54.503200  26.076900 -46.871900   4.543380 -12.250800 -74.302400 -10.423500 -69.019700  12.969300  47.228000  34.622500 -72.268900 -15.936300  -0.007300   0.000915  -2.968190  -0.000177   0.010631 -18.092800   0.490737  -1.501820 -14.808500   0.003074  -0.000830 -10.365900   0.007199   0.002068 -25.996200  -4.301470   8.741800 -26.325300   0.001721  -0.007492 -17.532600   0.001385   0.001258 -19.688100  -3.308620   9.160760 -19.953300   0.002202  -0.001089 -13.288900   0.001297  -0.000801 -18.240600  -6.097260  17.863500 -28.799500   0.005015  -0.008219 -19.180500   0.002071   0.000402   8.087890  -0.754144   9.280460  38.994200  10.691900  57.846300 -14.487900 -12.343500  79.261400 -32.690000  13.495500  14.830000 -37.922800  41.917600  75.698600  39.817700  -0.033250   0.027595  15.520400  -0.008431   0.034947  35.583700   2.141890   2.977470  29.165200  -0.001362  -0.000245  20.415600  -0.001652  -0.001425  28.239700  -1.909720  -3.552090  34.211500   0.000385   0.000426  22.784900   0.000516   0.000163  28.656900  -3.633750  -6.661750  43.340800  -0.010646  -0.014000  28.865000  -0.010715  -0.003955  42.832900  -5.155550  -5.568820  64.681600  -0.012966  -0.000694  43.078000  -0.002194  -0.001487   1.155160  15.814100   3.119550   0.271756   1.475460  11.375800  -5.245690  -4.280030   3.655590  -0.000000   0.000000   0.000000   1.857790  14.758800  -8.382960  -0.498354   3.899290  -7.965670  -7.113690  -0.681053   1.807330   0.000000   0.000000   0.000000
  0.674442  89.940700   0.749241  -1.523870 -14.769600  -0.851444  -0.618468  10.331700   2.315510  -1.712180  20.628200   4.870760  -2.172510   1.929250   0.073149  -3.581040   3.893770   9.458440  -4.494520  -1.970630   1.603590 -54.405600  26.101500 -46.991600   4.511110 -12.269900 -74.318200 -10.539400 -69.103700  12.837300  47.251700  34.673000 -72.347300 -16.004800  -0.007277   0.000897  -3.002400  -0.000186   0.010714 -18.117900   0.473671  -1.447280 -14.828800   0.003033  -0.000868 -10.380100   0.007193   0.002066 -26.039200  -4.303560   8.730920 -26.368000   0.001757  -0.007564 -17.561000   0.001438   0.001197 -19.708700  -3.308570   9.151520 -19.973600   0.002167  -0.001093 -13.302400   0.001243  -0.000797 -18.250200  -6.130370  17.947300 -28.832800   0.004998  -0.008235 -19.202700   0.002066   0.000420   8.129620  -0.838949   9.237800  39.633000  10.884400  57.515500 -13.436200 -14.049300  78.998600 -32.755100   8.207310  13.096100 -39.205000  42.893900  76.779700  39.124300  -0.031923   0.025986  14.922300  -0.007625   0.031753  35.759000   2.045870   2.828210  29.304400  -0.001419   0.000347  20.513000  -0.001702  -0.001396  28.272500  -1.905970  -3.542240  34.499600   0.000660   0.002229  22.976800   0.000770   0.000789  28.875400  -4.091690  -7.416710  43.782000  -0.005428  -0.008646  29.158800  -0.006575  -0.002098  43.040100  -5.784210  -6.188730  65.053600  -0.008275   0.000301  43.325700   0.000934  -0.001855   1.139230  15.803000   3.085350   0.258354   1.479160  11.416800  -5.228020  -4.282800   3.690370  -0.000000   0.000000   0.000000   1.839510  14.753000  -8.371270  -0.502465   3.890470  -7.978880  -7.108360  -0.676181   1.851260   0.000000   0.000000   0.000000
  0.698684  89.936400   0.731723  -1.526560 -14.764600  -0.898364  -0.599251  10.319400   2.312160  -1.671020  20.604500   4.857130  -2.088670   1.887720   0.068813  -3.442490   3.810960   8.509490  -4.500110  -1.932400   1.556230 -54.304800  26.116300 -47.115200   4.472640 -12.284500 -74.336300 -10.671200 -69.151800  12.692900  47.264300  34.717400 -72.421200 -16.062400  -0.007254   0.000876  -3.031190  -0.000191   0.010796 -18.158800   0.457951  -1.396000 -14.861700   0.002990  -0.000904 -10.403200   0.007187   0.002065 -26.095000  -4.306520   8.716790 -26.423400   0.001793  -0.007635 -17.598000   0.001492   0.001134 -19.744300  -3.308450   9.139090 -20.008700   0.002132  -0.001097 -13.325800   0.001193  -0.000793 -18.284900  -6.161520  17.995400 -28.892200   0.004977  -0.008251 -19.242200   0.002061   0.000438   8.169990  -0.902720   9.194220  40.299500  11.030900  57.147400 -12.604900 -15.494200  78.805600 -33.206300   3.035520  11.340000 -40.443900  43.904200  78.103700  38.465400  -0.027829   0.021998  14.378100  -0.007163   0.024801  35.867900   1.971190   2.714970  29.389100  -0.001476   0.000956  20.572400  -0.001748  -0.001365  28.294000  -1.902210  -3.532390  34.687800   0.000961   0.003236  23.102100   0.001066   0.001379  28.990400  -4.513510  -8.112180  44.013000  -0.000312  -0.003459  29.312700  -0.002380  -0.000405  43.121200  -6.359170  -6.764560  65.281300  -0.001390   0.001078  43.477400   0.002816  -0.002280   1.122910  15.790100   3.048380   0.243175   1.484950  11.466000  -5.207810  -4.287170   3.727860  -0.000000   0.000000   0.000000   1.819330  14.742800  -8.360330  -0.509048   3.883530  -7.985350  -7.098750  -0.671360   1.899860  -0.000000   0.000000   0.000000
  0.724478  89.934400   0.714501  -1.530730 -14.760100  -0.953837  -0.580896  10.308100   2.294580  -1.629100  20.583100   4.815320  -2.012240   1.854950   0.065163  -3.316150   3.746770   7.582040  -4.496750  -1.890800   1.529110 -54.208600  26.112700 -47.226900   4.418780 -12.282200 -74.372300 -10.876200 -69.144700  12.482600  47.251600  34.739300 -72.461800 -16.097200  -0.007228   0.000848  -3.049180  -0.000194   0.010881 -18.211700   0.447226  -1.359160 -14.904700   0.002937  -0.000938 -10.433300   0.007189   0.002066 -26.164300  -4.311180   8.699250 -26.492400   0.001833  -0.007706 -17.643900   0.001541   0.001077 -19.783600  -3.308410   9.124180 -20.047600   0.002087  -0.001095 -13.351700   0.001160  -0.000798 -18.330200  -6.178730  17.997000 -28.963100   0.004946  -0.008269 -19.289400   0.002061   0.000456   8.210110  -0.942322   9.154630  41.004100  11.138400  56.746200 -12.137400 -16.399800  78.706000 -34.260900  -1.626960   9.615830 -41.668100  44.813500  79.295300  37.889100  -0.018087   0.014088  13.975600  -0.007220   0.013328  35.749000   1.919960   2.652110  29.290800  -0.001539   0.001580  20.503600  -0.001780  -0.001340  28.269900  -1.905300  -3.540440  34.503900   0.001291   0.002578  22.979700   0.001423   0.001910  28.879200  -4.813690  -8.656750  43.914500   0.001627   0.000040  29.247100   0.000449   0.001052  42.935200  -6.772090  -7.231430  65.092200   0.001970   0.001571  43.351500   0.002823  -0.002756   1.103550  15.765100   3.017460   0.229212   1.502500  11.515200  -5.184370  -4.289880   3.766190   0.000000   0.000000   0.000000   1.795350  14.730400  -8.346890  -0.516280   3.877600  -7.986220  -7.084580  -0.664252   1.949760   0.000000   0.000000   0.000000
